<?xml version="1.0" encoding="UTF-8"?>
<!DOCTYPE svg PUBLIC "-//W3C//DTD SVG 1.1//EN" "http://www.w3.org/Graphics/SVG/1.1/DTD/svg11.dtd">
<!-- Creator: CorelDRAW -->
<svg xmlns="http://www.w3.org/2000/svg" xml:space="preserve" width="512px" height="512px" version="1.1" shape-rendering="geometricPrecision" text-rendering="geometricPrecision" image-rendering="optimizeQuality" fill-rule="evenodd" clip-rule="evenodd"
viewBox="0 0 179800 179800"
 xmlns:xlink="http://www.w3.org/1999/xlink"
 xmlns:xodm="http://www.corel.com/coreldraw/odm/2003">
 <g id="Layer_x0020_1">
  <metadata id="CorelCorpID_0Corel-Layer"/>
  <rect fill="none" width="179800" height="179800"/>
  <g id="_1521801024848">
   <path fill="gray" d="M142130 113370c-2410,-3750 -8150,-5770 -15780,-6800l15780 0c0,2260 0,4530 0,6800z"/>
   <path fill="gray" d="M142130 66430c-2410,3750 -8150,5770 -15780,6800l15780 0c0,-2270 0,-4530 0,-6800z"/>
   <rect fill="#999999" x="106800" y="73160" width="35250" height="33480"/>
   <rect fill="#E6E6E6" x="73000" y="55990" width="33810" height="67810"/>
   <polygon fill="#B3B3B3" points="73000,89900 73000,123800 44590,103870 44590,89900 44590,75930 73000,55990 "/>
   <rect fill="#99FFFF" x="73000" y="73160" width="33810" height="8230"/>
   <rect fill="#99FFFF" x="73000" y="98410" width="33810" height="8230"/>
   <rect fill="#4D4D4D" x="142060" y="66360" width="14520" height="47070"/>
   <rect fill="gray" x="139860" y="72450" width="2200" height="34900"/>
  </g>
 </g>
</svg>
