<?xml version="1.0" encoding="UTF-8"?>
<!DOCTYPE svg PUBLIC "-//W3C//DTD SVG 1.1//EN" "http://www.w3.org/Graphics/SVG/1.1/DTD/svg11.dtd">
<!-- Creator: CorelDRAW -->
<svg xmlns="http://www.w3.org/2000/svg" xml:space="preserve" width="442px" height="442px" version="1.1" shape-rendering="geometricPrecision" text-rendering="geometricPrecision" image-rendering="optimizeQuality" fill-rule="evenodd" clip-rule="evenodd"
viewBox="0 0 69900 69900"
 xmlns:xlink="http://www.w3.org/1999/xlink"
 xmlns:xodm="http://www.corel.com/coreldraw/odm/2003">
 <defs>
    <linearGradient id="id0" gradientUnits="userSpaceOnUse" x1="34560" y1="35460" x2="58450" y2="35460">
     <stop offset="0" stop-opacity="1" stop-color="#B3B3B3"/>
     <stop offset="0.721569" stop-opacity="1" stop-color="#3B3B3B"/>
     <stop offset="1" stop-opacity="1" stop-color="#7A7A7A"/>
    </linearGradient>
 </defs>
 <g id="Layer_x0020_1">
  <metadata id="CorelCorpID_0Corel-Layer"/>
  <g id="_1521921844128">
   <path fill="#990000" d="M15360 30l39240 0 15300 15310 0 39230 -15300 15300 -39240 0 -15300 -15300 0 -39230 15300 -15310zm2510 4450l34230 0 13350 13360 0 34230 -13350 13350 -34230 0 -13360 -13350 0 -34230 13360 -13360z"/>
   <path fill="#FFFF66" d="M3580 38440c-4890,-2440 -4660,-4760 0,-6980l0 6980z"/>
   <path fill="#FFFF66" d="M66390 31460c4560,2210 4810,4530 0,6980l0 -6980z"/>
   <path fill="#FFFF66" d="M31480 3550c2430,-4850 4740,-4620 6950,0l-6950 0z"/>
   <path fill="#FFFF66" d="M38460 66360c-2220,4600 -4550,4850 -7010,0l7010 0z"/>
   <polygon fill="#663300" points="3580,17310 17340,3550 52620,3550 66390,17310 66390,52590 52620,66360 17340,66360 3580,52590 "/>
  </g>
  <g id="_1521921868608">
   <rect fill="url(#id0)" x="34560" y="26710" width="23890" height="17480"/>
   <path fill="#CCCCCC" d="M11440 44200c15670,0 31350,0 47030,0 -4240,-5570 -4790,-11370 0,-17490 -15680,0 -31360,0 -47030,0 0,5830 0,11660 0,17490z"/>
   <rect fill="gray" x="13590" y="28120" width="33660" height="3270"/>
   <rect fill="gray" x="13590" y="39490" width="33660" height="3270"/>
   <rect fill="#000066" x="15460" y="33260" width="12270" height="3890"/>
  </g>
 </g>
</svg>
