<?xml version="1.0" encoding="UTF-8"?>
<!DOCTYPE svg PUBLIC "-//W3C//DTD SVG 1.1//EN" "http://www.w3.org/Graphics/SVG/1.1/DTD/svg11.dtd">
<!-- Creator: CorelDRAW -->
<svg xmlns="http://www.w3.org/2000/svg" xml:space="preserve" width="442px" height="442px" version="1.1" shape-rendering="geometricPrecision" text-rendering="geometricPrecision" image-rendering="optimizeQuality" fill-rule="evenodd" clip-rule="evenodd"
viewBox="0 0 80910 80910"
 xmlns:xlink="http://www.w3.org/1999/xlink"
 xmlns:xodm="http://www.corel.com/coreldraw/odm/2003">
 <g id="Layer_x0020_1">
  <metadata id="CorelCorpID_0Corel-Layer"/>
  <g id="_1521351722608">
   <g>
    <path fill="#990000" d="M17780 30l45410 0 17720 17720 0 45410 -17720 17720 -45410 0 -17710 -17720 0 -45410 17710 -17720zm2900 5160l39620 0 15460 15460 0 39620 -15460 15450 -39620 0 -15460 -15450 0 -39620 15460 -15460z"/>
    <path fill="#FFFF66" d="M4140 44490c-5650,-2820 -5390,-5510 0,-8080l0 8080z"/>
    <path fill="#FFFF66" d="M76840 36410c5290,2560 5570,5240 0,8080l0 -8080z"/>
    <path fill="#FFFF66" d="M36430 4100c2820,-5600 5500,-5340 8050,0l-8050 0z"/>
    <path fill="#FFFF66" d="M44510 76810c-2560,5320 -5260,5610 -8110,0l8110 0z"/>
    <polygon fill="#663300" points="4140,20040 20070,4100 60910,4100 76840,20040 76840,60870 60910,76810 20070,76810 4140,60870 "/>
   </g>
   <circle fill="#C4A987" cx="40490" cy="40460" r="23650"/>
  </g>
  <g id="_1521351680656">
   <rect fill="#4D4D4D" x="5500" y="33170" width="18070" height="14570" rx="6290" ry="5070"/>
   <rect fill="#CCCCCC" x="14540" y="31420" width="60930" height="18070"/>
   <polygon fill="#4D4D4D" points="18040,31420 33100,31420 25570,24380 18040,24380 "/>
   <rect fill="gray" x="68780" y="30010" width="6690" height="20890"/>
   <rect fill="#999999" x="14540" y="46170" width="54240" height="3330"/>
   <rect fill="#999999" x="14540" y="31340" width="54240" height="3330"/>
   <polygon fill="#4D4D4D" points="18040,49490 33100,49490 25570,56530 18040,56530 "/>
   <rect fill="#CC3300" x="18240" y="36830" width="13590" height="7250"/>
   <rect fill="#B3B3B3" x="68780" y="49280" width="6690" height="1620"/>
   <rect fill="#B3B3B3" x="68780" y="30010" width="6690" height="1620"/>
  </g>
 </g>
</svg>
