<?xml version="1.0" encoding="UTF-8"?>
<!DOCTYPE svg PUBLIC "-//W3C//DTD SVG 1.1//EN" "http://www.w3.org/Graphics/SVG/1.1/DTD/svg11.dtd">
<!-- Creator: CorelDRAW -->
<svg xmlns="http://www.w3.org/2000/svg" xml:space="preserve" width="235px" height="83px" version="1.1" style="shape-rendering:geometricPrecision; text-rendering:geometricPrecision; image-rendering:optimizeQuality; fill-rule:evenodd; clip-rule:evenodd"
viewBox="0 0 25190 8870"
 xmlns:xlink="http://www.w3.org/1999/xlink"
 xmlns:xodm="http://www.corel.com/coreldraw/odm/2003">
 <defs>
  <style type="text/css">
   <![CDATA[
    .fil2 {fill:none}
    .fil1 {fill:#FFF212}
    .fil3 {fill:#FFEA18}
    .fil4 {fill:#FFE51D}
    .fil5 {fill:#FFE01F}
    .fil6 {fill:#FFDB22}
    .fil7 {fill:#FFD624}
    .fil8 {fill:#FFD127}
    .fil9 {fill:#FFCC29}
    .fil10 {fill:#FFC72A}
    .fil11 {fill:#FEC12C}
    .fil12 {fill:#FDBC2D}
    .fil13 {fill:#FCB72E}
    .fil14 {fill:#FBB22F}
    .fil15 {fill:#FBAD30}
    .fil16 {fill:#FAA831}
    .fil17 {fill:#F9A331}
    .fil18 {fill:#F89E32}
    .fil19 {fill:#F89933}
    .fil20 {fill:#F79433}
    .fil21 {fill:#F69033}
    .fil22 {fill:#F68A34}
    .fil23 {fill:#F58634}
    .fil0 {fill:url(#id0)}
   ]]>
  </style>
  <linearGradient id="id0" gradientUnits="userSpaceOnUse" x1="16000" y1="4120" x2="3950" y2="4120">
   <stop offset="0" style="stop-opacity:1; stop-color:#FFF212"/>
   <stop offset="1" style="stop-opacity:1; stop-color:#F89833"/>
  </linearGradient>
 </defs>
 <g id="Layer_x0020_1">
  <metadata id="CorelCorpID_0Corel-Layer"/>
  <g id="_1521883008896">
   <path class="fil0" d="M20750 0c-11670,320 -18370,1850 -20750,4440 2290,3020 9870,4280 20750,4430 0,-2950 0,-5910 0,-8870z"/>
   <circle class="fil1" cx="20750" cy="4440" r="4440"/>
   <circle class="fil2" cx="20750" cy="4440" r="640"/>
   <g>
    <path class="fil3" d="M20750 180c-2350,0 -4260,1910 -4260,4260 0,2350 1910,4250 4260,4250 2350,0 4260,-1900 4260,-4250 0,-2350 -1910,-4260 -4260,-4260z"/>
    <path class="fil4" d="M20750 360c-2250,0 -4070,1830 -4070,4080 0,2250 1820,4070 4070,4070 2250,0 4070,-1820 4070,-4070 0,-2250 -1820,-4080 -4070,-4080z"/>
    <path class="fil5" d="M20750 540c-2150,0 -3890,1750 -3890,3900 0,2150 1740,3890 3890,3890 2150,0 3890,-1740 3890,-3890 0,-2150 -1740,-3900 -3890,-3900z"/>
    <path class="fil6" d="M20750 720c-2050,0 -3710,1670 -3710,3720 0,2050 1660,3710 3710,3710 2050,0 3710,-1660 3710,-3710 0,-2050 -1660,-3720 -3710,-3720z"/>
    <path class="fil7" d="M20750 910c-1950,0 -3530,1580 -3530,3530 0,1950 1580,3530 3530,3530 1950,0 3530,-1580 3530,-3530 0,-1950 -1580,-3530 -3530,-3530z"/>
    <path class="fil8" d="M20750 1090c-1850,0 -3350,1500 -3350,3350 0,1850 1500,3350 3350,3350 1850,0 3350,-1500 3350,-3350 0,-1850 -1500,-3350 -3350,-3350z"/>
    <path class="fil9" d="M20750 1270c-1750,0 -3170,1420 -3170,3170 0,1750 1420,3170 3170,3170 1750,0 3170,-1420 3170,-3170 0,-1750 -1420,-3170 -3170,-3170z"/>
    <path class="fil10" d="M20750 1450c-1650,0 -2990,1340 -2990,2990 0,1650 1340,2980 2990,2980 1650,0 2990,-1330 2990,-2980 0,-1650 -1340,-2990 -2990,-2990z"/>
    <path class="fil11" d="M20750 1630c-1550,0 -2810,1260 -2810,2810 0,1550 1260,2800 2810,2800 1550,0 2810,-1250 2810,-2800 0,-1550 -1260,-2810 -2810,-2810z"/>
    <path class="fil12" d="M20750 1810c-1450,0 -2630,1180 -2630,2630 0,1450 1180,2620 2630,2620 1450,0 2630,-1170 2630,-2620 0,-1450 -1180,-2630 -2630,-2630z"/>
    <path class="fil13" d="M20750 1990c-1350,0 -2440,1100 -2440,2450 0,1350 1090,2440 2440,2440 1350,0 2440,-1090 2440,-2440 0,-1350 -1090,-2450 -2440,-2450z"/>
    <path class="fil14" d="M20750 2170c-1250,0 -2260,1020 -2260,2270 0,1250 1010,2260 2260,2260 1250,0 2260,-1010 2260,-2260 0,-1250 -1010,-2270 -2260,-2270z"/>
    <path class="fil15" d="M20750 2350c-1150,0 -2080,940 -2080,2090 0,1150 930,2080 2080,2080 1150,0 2080,-930 2080,-2080 0,-1150 -930,-2090 -2080,-2090z"/>
    <path class="fil16" d="M20750 2540c-1050,0 -1900,850 -1900,1900 0,1050 850,1900 1900,1900 1050,0 1900,-850 1900,-1900 0,-1050 -850,-1900 -1900,-1900z"/>
    <path class="fil17" d="M20750 2720c-950,0 -1720,770 -1720,1720 0,950 770,1720 1720,1720 950,0 1720,-770 1720,-1720 0,-950 -770,-1720 -1720,-1720z"/>
    <path class="fil18" d="M20750 2900c-850,0 -1540,690 -1540,1540 0,850 690,1540 1540,1540 850,0 1540,-690 1540,-1540 0,-850 -690,-1540 -1540,-1540z"/>
    <path class="fil19" d="M20750 3080c-750,0 -1360,610 -1360,1360 0,750 610,1360 1360,1360 750,0 1360,-610 1360,-1360 0,-750 -610,-1360 -1360,-1360z"/>
    <path class="fil20" d="M20750 3260c-650,0 -1180,530 -1180,1180 0,650 530,1170 1180,1170 650,0 1180,-520 1180,-1170 0,-650 -530,-1180 -1180,-1180z"/>
    <path class="fil21" d="M20750 3440c-550,0 -1000,450 -1000,1000 0,550 450,990 1000,990 550,0 1000,-440 1000,-990 0,-550 -450,-1000 -1000,-1000z"/>
    <path class="fil22" d="M20750 3620c-450,0 -810,370 -810,820 0,450 360,810 810,810 450,0 820,-360 820,-810 0,-450 -370,-820 -820,-820z"/>
   </g>
   <circle class="fil23" cx="20750" cy="4440" r="630"/>
  </g>
 </g>
</svg>
