<?xml version="1.0" encoding="UTF-8"?>
<!DOCTYPE svg PUBLIC "-//W3C//DTD SVG 1.1//EN" "http://www.w3.org/Graphics/SVG/1.1/DTD/svg11.dtd">
<!-- Creator: CorelDRAW -->
<svg xmlns="http://www.w3.org/2000/svg" xml:space="preserve" width="285px" height="177px" version="1.1" shape-rendering="geometricPrecision" text-rendering="geometricPrecision" image-rendering="optimizeQuality" fill-rule="evenodd" clip-rule="evenodd"
viewBox="0 0 3900 2430"
 xmlns:xlink="http://www.w3.org/1999/xlink"
 xmlns:xodm="http://www.corel.com/coreldraw/odm/2003">
 <defs>
    <linearGradient id="id0" gradientUnits="userSpaceOnUse" x1="550" y1="420" x2="1990" y2="420">
     <stop offset="0" stop-opacity="1" stop-color="#742C2D"/>
     <stop offset="1" stop-opacity="1" stop-color="#ED3237"/>
    </linearGradient>
    <linearGradient id="id1" gradientUnits="userSpaceOnUse" x1="550" y1="2010" x2="1990" y2="2010">
     <stop offset="0" stop-opacity="1" stop-color="#742C2D"/>
     <stop offset="1" stop-opacity="1" stop-color="#ED3237"/>
    </linearGradient>
    <linearGradient id="id2" gradientUnits="userSpaceOnUse" x1="3100" y1="1210" x2="3900" y2="1210">
     <stop offset="0" stop-opacity="1" stop-color="#742C2D"/>
     <stop offset="1" stop-opacity="1" stop-color="#ED3237"/>
    </linearGradient>
    <linearGradient id="id3" gradientUnits="userSpaceOnUse" x1="1850" y1="1620" x2="1850" y2="810">
     <stop offset="0" stop-opacity="1" stop-color="#91D8F7"/>
     <stop offset="0.501961" stop-opacity="1" stop-color="#FEFEFE"/>
     <stop offset="1" stop-opacity="1" stop-color="#91D8F7"/>
    </linearGradient>
    <linearGradient id="id4" gradientUnits="userSpaceOnUse" x1="100" y1="1620" x2="100" y2="810">
     <stop offset="0" stop-opacity="1" stop-color="#898A8A"/>
     <stop offset="0.490196" stop-opacity="1" stop-color="#FEFEFE"/>
     <stop offset="1" stop-opacity="1" stop-color="#898A8A"/>
    </linearGradient>
 </defs>
 <g id="Layer_x0020_1">
  <metadata id="CorelCorpID_0Corel-Layer"/>
  <g id="_1521923647008">
   <polygon fill="url(#id0)" points="550,0 1270,0 1990,840 550,840 "/>
   <polygon fill="url(#id1)" points="550,2430 1270,2430 1990,1590 550,1590 "/>
   <circle fill="url(#id2)" cx="3500" cy="1210" r="400"/>
   <polygon fill="url(#id3)" points="190,810 3500,810 3500,940 3500,950 3500,950 3500,950 3500,950 3500,960 3500,960 3500,960 3500,960 3500,970 3500,970 3500,970 3500,970 3500,970 3500,1070 3500,1070 3500,1080 3500,1080 3500,1080 3500,1080 3500,1090 3500,1090 3500,1090 3500,1090 3500,1100 3500,1100 3500,1100 3500,1100 3500,1200 3500,1200 3500,1200 3500,1210 3500,1210 3500,1210 3500,1210 3500,1220 3500,1220 3500,1220 3500,1220 3500,1230 3500,1230 3500,1230 3500,1330 3500,1330 3500,1330 3500,1330 3500,1340 3500,1340 3500,1340 3500,1340 3500,1350 3500,1350 3500,1350 3500,1350 3500,1360 3500,1360 3500,1460 3500,1490 3500,1620 190,1620 190,1490 190,1460 190,1360 190,1360 190,1350 190,1350 190,1350 190,1350 190,1340 190,1340 190,1340 190,1340 190,1330 190,1330 190,1330 190,1330 190,1230 190,1230 190,1230 190,1220 190,1220 190,1220 190,1220 190,1210 190,1210 190,1210 190,1210 190,1200 190,1200 190,1200 190,1100 190,1100 190,1100 190,1100 190,1090 190,1090 190,1090 190,1090 190,1080 190,1080 190,1080 190,1080 190,1070 190,1070 190,970 190,970 190,970 190,970 190,970 190,960 190,960 190,960 190,960 190,950 190,950 190,950 190,950 190,940 "/>
   <polygon fill="url(#id4)" points="0,810 190,810 190,940 190,950 190,950 190,950 190,950 190,960 190,960 190,960 190,960 190,970 190,970 190,970 190,970 190,970 190,1070 190,1070 190,1080 190,1080 190,1080 190,1080 190,1090 190,1090 190,1090 190,1090 190,1100 190,1100 190,1100 190,1100 190,1200 190,1200 190,1200 190,1210 190,1210 190,1210 190,1210 190,1220 190,1220 190,1220 190,1220 190,1230 190,1230 190,1230 190,1330 190,1330 190,1330 190,1330 190,1340 190,1340 190,1340 190,1340 190,1350 190,1350 190,1350 190,1350 190,1360 190,1360 190,1460 190,1490 190,1620 0,1620 0,1490 0,1460 0,1360 0,1360 0,1350 0,1350 0,1350 0,1350 0,1340 0,1340 0,1340 0,1340 0,1330 0,1330 0,1330 0,1330 0,1230 0,1230 0,1230 0,1220 0,1220 0,1220 0,1220 0,1210 0,1210 0,1210 0,1210 0,1200 0,1200 0,1200 0,1100 0,1100 0,1100 0,1100 0,1090 0,1090 0,1090 0,1090 0,1080 0,1080 0,1080 0,1080 0,1070 0,1070 0,970 0,970 0,970 0,970 0,970 0,960 0,960 0,960 0,960 0,950 0,950 0,950 0,950 0,940 "/>
  </g>
 </g>
</svg>
