<?xml version="1.0" encoding="UTF-8"?>
<!DOCTYPE svg PUBLIC "-//W3C//DTD SVG 1.1//EN" "http://www.w3.org/Graphics/SVG/1.1/DTD/svg11.dtd">
<!-- Creator: CorelDRAW -->
<svg xmlns="http://www.w3.org/2000/svg" xml:space="preserve" width="393px" height="190px" version="1.1" shape-rendering="geometricPrecision" text-rendering="geometricPrecision" image-rendering="optimizeQuality" fill-rule="evenodd" clip-rule="evenodd"
viewBox="0 0 7430 3600"
 xmlns:xlink="http://www.w3.org/1999/xlink"
 xmlns:xodm="http://www.corel.com/coreldraw/odm/2003">
 <defs>
    <linearGradient id="id0" gradientUnits="userSpaceOnUse" x1="750" y1="620" x2="2740" y2="620">
     <stop offset="0" stop-opacity="1" stop-color="#742C2D"/>
     <stop offset="1" stop-opacity="1" stop-color="#ED3237"/>
    </linearGradient>
    <linearGradient id="id1" gradientUnits="userSpaceOnUse" x1="750" y1="2970" x2="2740" y2="2970">
     <stop offset="0" stop-opacity="1" stop-color="#742C2D"/>
     <stop offset="1" stop-opacity="1" stop-color="#ED3237"/>
    </linearGradient>
    <linearGradient id="id2" gradientUnits="userSpaceOnUse" x1="6330" y1="1800" x2="7430" y2="1800">
     <stop offset="0" stop-opacity="1" stop-color="#742C2D"/>
     <stop offset="1" stop-opacity="1" stop-color="#ED3237"/>
    </linearGradient>
    <linearGradient id="id3" gradientUnits="userSpaceOnUse" x1="3570" y1="2350" x2="3570" y2="1250">
     <stop offset="0" stop-opacity="1" stop-color="#91D8F7"/>
     <stop offset="0.501961" stop-opacity="1" stop-color="#FEFEFE"/>
     <stop offset="1" stop-opacity="1" stop-color="#91D8F7"/>
    </linearGradient>
    <linearGradient id="id4" gradientUnits="userSpaceOnUse" x1="130" y1="2350" x2="130" y2="1250">
     <stop offset="0" stop-opacity="1" stop-color="#898A8A"/>
     <stop offset="0.490196" stop-opacity="1" stop-color="#FEFEFE"/>
     <stop offset="1" stop-opacity="1" stop-color="#898A8A"/>
    </linearGradient>
 </defs>
 <g id="Layer_x0020_1">
  <metadata id="CorelCorpID_0Corel-Layer"/>
  <g id="_1521670358288">
   <polygon fill="url(#id0)" points="750,0 1750,0 2740,1250 750,1250 "/>
   <polygon fill="url(#id1)" points="750,3600 1750,3600 2740,2350 750,2350 "/>
   <circle fill="url(#id2)" cx="6880" cy="1800" r="550"/>
   <polygon fill="url(#id3)" points="270,1250 6880,1250 6880,1420 6880,1430 6880,1430 6880,1430 6880,1440 6880,1440 6880,1440 6880,1450 6880,1450 6880,1460 6880,1460 6880,1460 6880,1470 6880,1470 6880,1600 6880,1600 6880,1610 6880,1610 6880,1610 6880,1620 6880,1620 6880,1620 6880,1630 6880,1630 6880,1640 6880,1640 6880,1640 6880,1640 6880,1780 6880,1780 6880,1780 6880,1790 6880,1790 6880,1790 6880,1800 6880,1800 6880,1800 6880,1810 6880,1810 6880,1820 6880,1820 6880,1820 6880,1950 6880,1960 6880,1960 6880,1960 6880,1970 6880,1970 6880,1970 6880,1980 6880,1980 6880,1980 6880,1990 6880,1990 6880,2000 6880,2000 6880,2130 6880,2170 6880,2350 270,2350 270,2170 270,2130 270,2000 270,2000 270,1990 270,1990 270,1980 270,1980 270,1980 270,1970 270,1970 270,1970 270,1960 270,1960 270,1960 270,1950 270,1820 270,1820 270,1820 270,1810 270,1810 270,1800 270,1800 270,1800 270,1790 270,1790 270,1790 270,1780 270,1780 270,1780 270,1640 270,1640 270,1640 270,1640 270,1630 270,1630 270,1620 270,1620 270,1620 270,1610 270,1610 270,1610 270,1600 270,1600 270,1470 270,1470 270,1460 270,1460 270,1460 270,1450 270,1450 270,1440 270,1440 270,1440 270,1430 270,1430 270,1430 270,1420 "/>
   <polygon fill="url(#id4)" points="0,1250 270,1250 270,1420 270,1430 270,1430 270,1430 270,1440 270,1440 270,1440 270,1450 270,1450 270,1460 270,1460 270,1460 270,1470 270,1470 270,1600 270,1600 270,1610 270,1610 270,1610 270,1620 270,1620 270,1620 270,1630 270,1630 270,1640 270,1640 270,1640 270,1640 270,1780 270,1780 270,1780 270,1790 270,1790 270,1790 270,1800 270,1800 270,1800 270,1810 270,1810 270,1820 270,1820 270,1820 270,1950 270,1960 270,1960 270,1960 270,1970 270,1970 270,1970 270,1980 270,1980 270,1980 270,1990 270,1990 270,2000 270,2000 270,2130 270,2170 270,2350 0,2350 0,2170 0,2130 0,2000 0,2000 0,1990 0,1990 0,1980 0,1980 0,1980 0,1970 0,1970 0,1970 0,1960 0,1960 0,1960 0,1950 0,1820 0,1820 0,1820 0,1810 0,1810 0,1800 0,1800 0,1800 0,1790 0,1790 0,1790 0,1780 0,1780 0,1780 0,1640 0,1640 0,1640 0,1640 0,1630 0,1630 0,1620 0,1620 0,1620 0,1610 0,1610 0,1610 0,1600 0,1600 0,1470 0,1470 0,1460 0,1460 0,1460 0,1450 0,1450 0,1440 0,1440 0,1440 0,1430 0,1430 0,1430 0,1420 "/>
  </g>
 </g>
</svg>
