<?xml version="1.0" encoding="UTF-8"?>
<!DOCTYPE svg PUBLIC "-//W3C//DTD SVG 1.1//EN" "http://www.w3.org/Graphics/SVG/1.1/DTD/svg11.dtd">
<!-- Creator: CorelDRAW -->
<svg xmlns="http://www.w3.org/2000/svg" xml:space="preserve" width="2048px" height="2048px" version="1.1" shape-rendering="geometricPrecision" text-rendering="geometricPrecision" image-rendering="optimizeQuality" fill-rule="evenodd" clip-rule="evenodd"
viewBox="0 0 1325380 1325380"
 xmlns:xlink="http://www.w3.org/1999/xlink"
 xmlns:xodm="http://www.corel.com/coreldraw/odm/2003">
 <g id="Layer_x0020_1">
  <metadata id="CorelCorpID_0Corel-Layer"/>
  <g id="_1523344299472">
   <g>
    <path fill="#333333" d="M165670 1307000c81350,0 147300,-65950 147300,-147300 0,-81340 -65950,-147290 -147300,-147290 -81350,0 -147290,65950 -147290,147290 0,81350 65940,147300 147290,147300zm0 -23040c68620,0 124260,-55630 124260,-124260 0,-68620 -55640,-124250 -124260,-124250 -68620,0 -124250,55630 -124250,124250 0,68630 55630,124260 124250,124260z"/>
    <path fill="gray" stroke="gray" stroke-width="580" stroke-miterlimit="2.61313" d="M248510 1067090c-21990,-19680 -51020,-31640 -82840,-31640 -31820,0 -60850,11960 -82830,31640 -3440,3080 -6710,6340 -9780,9780 -19680,21980 -31640,51010 -31640,82830 0,31830 11960,60860 31640,82840 3070,3440 6340,6700 9780,9780 21980,19670 51010,31640 82830,31640 31820,0 60850,-11970 82840,-31640 3430,-3080 6700,-6340 9780,-9780 19670,-21980 31640,-51010 31640,-82840 0,-31820 -11970,-60850 -31640,-82830 -3080,-3440 -6350,-6700 -9780,-9780z"/>
    <rect fill="white" stroke="white" stroke-width="580" stroke-miterlimit="2.61313" x="157450" y="1151580" width="16440" height="16260"/>
   </g>
   <g>
    <path fill="#333333" d="M1159710 1012410c81340,0 147290,65950 147290,147290 0,81350 -65950,147300 -147290,147300l0 0 -662690 0 0 0c-81350,0 -147300,-65950 -147300,-147300 0,-81340 65950,-147290 147300,-147290l662690 0zm0 271550c68620,0 124250,-55630 124250,-124260 0,-68620 -55630,-124250 -124250,-124250l-662690 0c-68630,0 -124260,55630 -124260,124250 0,68630 55630,124260 124260,124260l0 0 662690 0 0 0z"/>
    <path fill="gray" stroke="gray" stroke-width="1350" stroke-miterlimit="2.61313" d="M1283960 1159700c0,-68620 -55630,-124250 -124250,-124250l-662690 0c-68630,0 -124260,55630 -124260,124250 0,68630 55630,124260 124260,124260l662690 0c68620,0 124250,-55630 124250,-124260z"/>
    <polygon fill="white" stroke="white" stroke-width="580" stroke-miterlimit="2.61313" points="571630,1167830 579850,1167830 588070,1167830 588070,1151580 579850,1151580 571630,1151580 534320,1151580 488800,1151580 488800,1167830 534320,1167830 "/>
    <polygon fill="white" stroke="white" stroke-width="580" stroke-miterlimit="2.61313" points="861560,1167830 869780,1167830 878000,1167830 878000,1151580 869780,1151580 861560,1151580 824250,1151580 778720,1151580 778720,1167830 824250,1167830 "/>
    <polygon fill="white" stroke="white" stroke-width="580" stroke-miterlimit="2.61313" points="1151490,1167830 1159710,1167830 1167920,1167830 1167920,1151580 1159710,1151580 1151490,1151580 1114180,1151580 1068650,1151580 1068650,1167830 1114180,1167830 "/>
   </g>
   <g>
    <path fill="#333333" d="M312970 828360c0,81350 -65950,147300 -147300,147300 -81350,0 -147290,-65950 -147290,-147300l0 0 0 -662690 0 0c0,-81350 65940,-147290 147290,-147290 81350,0 147300,65940 147300,147290l0 662690zm-271550 0c0,68620 55630,124260 124250,124260 68620,0 124260,-55640 124260,-124260l0 -662690c0,-68620 -55640,-124250 -124260,-124250 -68620,0 -124250,55630 -124250,124250l0 0 0 662690 0 0z"/>
    <path fill="gray" stroke="gray" stroke-width="1350" stroke-miterlimit="2.61313" d="M165670 952620c68620,0 124260,-55640 124260,-124260l0 -662690c0,-68620 -55640,-124250 -124260,-124250 -68620,0 -124250,55630 -124250,124250l0 662690c0,68620 55630,124260 124250,124260z"/>
    <polygon fill="white" stroke="white" stroke-width="580" stroke-miterlimit="2.61313" points="157540,240290 157540,248510 157540,256730 173800,256730 173800,248510 173800,240290 173800,202980 173800,157450 157540,157450 157540,202980 "/>
    <polygon fill="white" stroke="white" stroke-width="580" stroke-miterlimit="2.61313" points="157540,530220 157540,538430 157540,546650 173800,546650 173800,538430 173800,530220 173800,492910 173800,447380 157540,447380 157540,492910 "/>
    <polygon fill="white" stroke="white" stroke-width="580" stroke-miterlimit="2.61313" points="157540,820140 157540,828360 157540,836580 173800,836580 173800,828360 173800,820140 173800,782830 173800,737310 157540,737310 157540,782830 "/>
   </g>
   <g>
    <path fill="#333333" d="M994030 621270c22880,0 41420,18540 41420,41420 0,22870 -18540,41420 -41420,41420 -22870,0 -41420,-18550 -41420,-41420 0,-22880 18550,-41420 41420,-41420zm289930 127960l0 -504430 0 -79130c0,-68620 -55630,-124250 -124250,-124250l-79130 0 -504440 0 -79120 0c-68630,0 -124260,55630 -124260,124250l0 0 0 60 0 79070 0 504430 0 79070 0 60 0 0 0 0c0,1070 20,2140 40,3210l0 0c30,1060 70,2130 120,3180l0 10c60,1050 130,2110 200,3160l0 0c80,1050 180,2100 280,3140l0 10c110,1040 230,2080 360,3120l0 0c130,1030 280,2060 430,3090l0 0c160,1030 330,2060 510,3080l0 0c180,1020 380,2030 590,3040l0 0c200,1010 420,2020 650,3020l0 0c240,1000 480,2000 730,2990l0 0c260,1000 530,1980 810,2970l0 0c280,980 570,1960 870,2930l0 0c300,970 610,1940 940,2900l0 0c330,970 660,1920 1010,2870l0 0c350,950 710,1900 1080,2840l0 0c370,940 750,1880 1150,2810l0 0c390,930 790,1850 1210,2770l0 0c410,910 840,1820 1270,2730l0 0c440,910 890,1800 1350,2700l0 0c450,890 920,1780 1400,2660l0 0c480,880 970,1750 1460,2620 21450,37290 61690,62400 107800,62400l0 0 180 0 78950 0 504430 0 78940 0 190 0 0 0c46100,0 86340,-25110 107790,-62400 500,-870 990,-1740 1460,-2620l0 0c480,-880 950,-1770 1410,-2660l0 0c450,-900 900,-1790 1340,-2700l0 0c430,-910 860,-1820 1270,-2730l0 0c420,-920 820,-1840 1220,-2770l0 0c390,-930 770,-1870 1140,-2810l0 0c370,-940 730,-1890 1080,-2840l0 0c350,-950 690,-1900 1010,-2870l0 0c330,-960 640,-1930 940,-2900l0 0c310,-970 600,-1950 880,-2930l0 0c270,-990 540,-1970 800,-2970l0 0c250,-990 500,-1990 730,-2990l0 0c230,-1000 450,-2010 660,-3020l0 0c200,-1010 400,-2020 580,-3040l0 0c180,-1020 350,-2050 510,-3080l0 0c160,-1030 300,-2060 430,-3090l0 0c130,-1040 250,-2080 360,-3120l0 -10c100,-1040 200,-2090 280,-3140l0 0c80,-1050 140,-2110 200,-3160l0 -10c50,-1050 90,-2120 120,-3180l0 0c30,-1070 40,-2140 40,-3210l0 0 0 0 0 -79130zm23040 79130l0 0c0,1270 -20,2540 -50,3800l0 0c-30,1270 -80,2520 -140,3780l0 0c-70,1260 -140,2510 -240,3750l0 0c-90,1250 -200,2490 -330,3730l0 0c-130,1240 -270,2470 -420,3700l0 0c-160,1230 -330,2450 -520,3670l0 0c-180,1220 -390,2430 -600,3640l0 0c-220,1210 -450,2420 -690,3610l0 10c-250,1190 -510,2390 -780,3570l0 10c-280,1180 -560,2360 -870,3540l0 0c-300,1180 -620,2350 -950,3510l0 0c-330,1170 -670,2330 -1030,3480l0 0c-360,1160 -730,2300 -1120,3440l0 0c-390,1140 -790,2280 -1200,3400l0 10c-410,1120 -840,2240 -1280,3360l0 0c-440,1110 -890,2220 -1360,3320l0 0c-460,1110 -940,2200 -1430,3290l0 0c-490,1090 -1000,2160 -1520,3240l0 0c-510,1070 -1040,2140 -1580,3200l0 0c-550,1060 -1100,2110 -1670,3150l0 0c-560,1040 -1140,2080 -1740,3110 -25410,44200 -73120,73980 -127770,73980l-190 -10 -662320 0 -180 10c-54660,0 -102360,-29770 -127780,-73980 -590,-1030 -1170,-2070 -1740,-3110l0 0c-570,-1040 -1120,-2090 -1660,-3150l0 0c-550,-1060 -1080,-2130 -1590,-3200l0 0c-520,-1070 -1020,-2150 -1520,-3240l0 0c-490,-1090 -970,-2180 -1430,-3290l0 0c-470,-1100 -920,-2210 -1360,-3320l0 0c-440,-1120 -870,-2240 -1280,-3360l0 -10c-410,-1120 -810,-2260 -1200,-3400l0 0c-380,-1140 -760,-2280 -1120,-3440l0 0c-350,-1150 -700,-2310 -1030,-3480l0 0c-330,-1160 -650,-2330 -950,-3510l0 0c-300,-1180 -590,-2360 -870,-3540l0 -10c-270,-1180 -530,-2380 -780,-3570l0 -10c-240,-1190 -470,-2400 -690,-3610l0 0c-210,-1210 -420,-2420 -600,-3640l0 0c-190,-1220 -360,-2440 -510,-3670l0 0c-160,-1230 -300,-2460 -430,-3700l0 0c-120,-1240 -230,-2480 -330,-3730l0 0c-90,-1240 -170,-2490 -240,-3750l0 0c-60,-1260 -110,-2510 -140,-3780l0 0c-30,-1260 -50,-2530 -50,-3800l0 0 0 -60 0 -662570 0 -60c0,-81350 65950,-147290 147300,-147290l662690 0c81340,0 147290,65940 147290,147290l0 662690zm-644310 -538440c22870,0 41420,18550 41420,41420 0,22880 -18550,41420 -41420,41420 -22880,0 -41420,-18540 -41420,-41420 0,-22870 18540,-41420 41420,-41420zm0 23040c10150,0 18380,8230 18380,18380 0,10160 -8230,18380 -18380,18380 -10150,0 -18380,-8220 -18380,-18380 0,-10150 8230,-18380 18380,-18380zm331340 -23040c22880,0 41420,18550 41420,41420 0,22880 -18540,41420 -41420,41420 -22870,0 -41420,-18540 -41420,-41420 0,-22870 18550,-41420 41420,-41420zm0 23040c10150,0 18380,8230 18380,18380 0,10160 -8230,18380 -18380,18380 -10150,0 -18380,-8220 -18380,-18380 0,-10150 8230,-18380 18380,-18380zm-331340 308310c22870,0 41420,18540 41420,41420 0,22870 -18550,41420 -41420,41420 -22880,0 -41420,-18550 -41420,-41420 0,-22880 18540,-41420 41420,-41420zm0 23040c10150,0 18380,8230 18380,18380 0,10150 -8230,18380 -18380,18380 -10150,0 -18380,-8230 -18380,-18380 0,-10150 8230,-18380 18380,-18380zm331340 0c10150,0 18380,8230 18380,18380 0,10150 -8230,18380 -18380,18380 -10150,0 -18380,-8230 -18380,-18380 0,-10150 8230,-18380 18380,-18380z"/>
    <path fill="gray" stroke="gray" stroke-width="1350" stroke-miterlimit="2.61313" d="M372760 165670l0 662690 360 9560 1070 9360 2480 12130 4710 14510 6380 13670c480,880 970,1750 1460,2620 21450,37290 61690,62400 107800,62400 220890,0 441790,0 662690,0 46100,0 86340,-25110 107790,-62400l6700 -13480 5050 -14350 2770 -12020 1300 -9300 600 -9490 40 -3210 0 -79130 0 -583560c0,-68620 -55630,-124250 -124250,-124250l-662690 0c-68630,0 -124260,55630 -124260,124250zm621270 455600c22880,0 41420,18540 41420,41420 0,22870 -18540,41420 -41420,41420 -22870,0 -41420,-18550 -41420,-41420 0,-22880 18550,-41420 41420,-41420zm-331340 -331350c22870,0 41420,18550 41420,41420 0,22880 -18550,41420 -41420,41420 -22880,0 -41420,-18540 -41420,-41420 0,-22870 18540,-41420 41420,-41420zm331340 82840c-22870,0 -41420,-18540 -41420,-41420 0,-22870 18550,-41420 41420,-41420 22880,0 41420,18550 41420,41420 0,22880 -18540,41420 -41420,41420zm-331340 248510c22870,0 41420,18540 41420,41420 0,22870 -18550,41420 -41420,41420 -22880,0 -41420,-18550 -41420,-41420 0,-22880 18540,-41420 41420,-41420z"/>
   </g>
   <polygon fill="white" stroke="white" stroke-width="580" stroke-miterlimit="2.61313" points="861560,505150 869780,505150 878000,505150 878000,488890 869780,488890 861560,488890 836490,488890 836490,447380 820230,447380 820230,488890 778720,488890 778720,505150 820230,505150 820230,530220 820230,538430 820230,546650 836490,546650 836490,538430 836490,530220 836490,505150 "/>
   <polygon fill="white" stroke="white" stroke-width="580" stroke-miterlimit="2.61313" points="1151580,530220 1151580,538430 1151580,546650 1167830,546650 1167830,538430 1167830,530220 1167830,517680 1167830,505150 1167830,488890 1167830,457920 1167830,447380 1151580,447380 1151580,488890 1126510,488890 1118290,488890 1110070,488890 1110070,505150 1118290,505150 1126510,505150 1151580,505150 "/>
   <path fill="white" stroke="white" stroke-width="580" stroke-miterlimit="2.61313" d="M1118290 157540l-4110 0 -4110 0 -18660 0 -22760 0 0 16260 12940 0 36700 0c280,0 570,0 850,10l10 0c280,10 560,20 840,30l10 0c17020,870 30670,14510 31530,31540l0 0c20,290 30,570 40,850l0 0c0,290 10,570 10,860l0 36700 0 4720 0 4110 0 4110 16250 0 0 -4110 0 -4110 0 -18660 0 -22760c0,-27360 -22180,-49550 -49540,-49550z"/>
   <path fill="white" stroke="white" stroke-width="580" stroke-miterlimit="2.61313" d="M538390 157500l4110 0 4110 0 18650 0 22770 0 0 16260 -12940 0 -36700 0c-290,0 -570,0 -860,10l0 0c-280,0 -570,10 -850,30l0 0c-17020,860 -30670,14510 -31540,31530l0 10c-10,280 -20,560 -30,850l0 0c-10,280 -10,570 -10,850l0 36700 0 4720 0 4110 0 4110 -16260 0 0 -4110 0 -4110 0 -18650 0 -22770c0,-27360 22190,-49540 49550,-49540z"/>
   <path fill="white" stroke="white" stroke-width="580" stroke-miterlimit="2.61313" d="M1118720 836400l-4110 0 -4110 0 -18650 0 -22770 0 0 -16260 12940 0 36700 0c290,0 570,0 860,-10l0 0c280,0 570,-20 850,-30l0 0c17030,-860 30670,-14510 31540,-31530l0 -10c10,-280 20,-560 30,-850l0 0c10,-280 10,-570 10,-860l0 -36690 0 -4720 0 -4110 0 -4110 16260 0 0 4110 0 4110 0 18650 0 22760c0,27370 -22190,49550 -49550,49550z"/>
   <path fill="white" stroke="white" stroke-width="580" stroke-miterlimit="2.61313" d="M538820 836450l4110 0 4110 0 18660 0 22760 0 0 -16260 -12940 0 -36700 0c-280,0 -570,-10 -850,-10l-10 0c-280,-10 -560,-20 -840,-40l-10 0c-17020,-860 -30670,-14510 -31530,-31530l0 0c-20,-290 -30,-570 -40,-850l0 0c0,-290 -10,-570 -10,-860l0 -36700 0 -4720 0 -4110 0 -4110 -16250 0 0 4110 0 4110 0 18660 0 22760c0,27360 22180,49550 49540,49550z"/>
   <polygon fill="white" stroke="white" stroke-width="580" stroke-miterlimit="2.61313" points="861560,173800 869780,173800 878000,173800 878000,157540 869780,157540 861560,157540 854760,157540 836490,157540 820230,157540 793020,157540 778720,157540 778720,173800 820230,173800 820230,198870 820230,207090 820230,215310 836490,215310 836490,207090 836490,198870 836490,173800 "/>
   <polygon fill="white" stroke="white" stroke-width="580" stroke-miterlimit="2.61313" points="530220,505150 538430,505150 546650,505150 546650,488890 538430,488890 530220,488890 505150,488890 505150,447380 488890,447380 488890,468130 488890,488890 488890,505150 488890,530220 488890,536270 488890,538430 488890,546650 505150,546650 505150,538430 505150,530220 505150,505150 "/>
   <polygon fill="white" stroke="white" stroke-width="580" stroke-miterlimit="2.61313" points="861560,836490 869780,836490 878000,836490 878000,820230 869780,820230 861560,820230 836490,820230 836490,778720 820230,778720 820230,820230 778720,820230 778720,836490 813210,836490 820230,836490 836490,836490 848440,836490 "/>
  </g>
  <rect fill="none" width="1325380" height="1325380"/>
 </g>
</svg>
